<svg width="24" height="24" viewBox="0 0 24 24" fill="none" xmlns="http://www.w3.org/2000/svg"><g id="Vector"> <path d="M12 19.25C12.4142 19.25 12.75 19.5858 12.75 20V23C12.75 23.4142 12.4142 23.75 12 23.75C11.5858 23.75 11.25 23.4142 11.25 23V20C11.25 19.5858 11.5858 19.25 12 19.25Z" fill="#000"/> <path d="M5.8125 17.126C6.10539 16.8331 6.58113 16.8331 6.87402 17.126C7.16692 17.4189 7.16692 17.8946 6.87402 18.1875L4.75195 20.3086C4.45904 20.6012 3.98421 20.6014 3.69141 20.3086C3.3986 20.0158 3.39877 19.541 3.69141 19.248L5.8125 17.126Z" fill="#000"/> <path d="M17.127 17.126C17.4198 16.8335 17.8947 16.8333 18.1875 17.126L20.3086 19.248C20.6014 19.541 20.6014 20.0157 20.3086 20.3086C20.0157 20.6013 19.5409 20.6013 19.248 20.3086L17.127 18.1875C16.8341 17.8946 16.8341 17.4189 17.127 17.126Z" fill="#000"/> <path fill-rule="evenodd" clip-rule="evenodd" d="M12 6.25C15.1756 6.25 17.75 8.82436 17.75 12C17.75 15.1756 15.1756 17.75 12 17.75C8.82436 17.75 6.25 15.1756 6.25 12C6.25 8.82436 8.82436 6.25 12 6.25ZM12 7.75C9.65279 7.75 7.75 9.65279 7.75 12C7.75 14.3472 9.65279 16.25 12 16.25C14.3472 16.25 16.25 14.3472 16.25 12C16.25 9.65279 14.3472 7.75 12 7.75Z" fill="#000"/> <path d="M4 11.25C4.41421 11.25 4.75 11.5858 4.75 12C4.75 12.4142 4.41421 12.75 4 12.75H1C0.585786 12.75 0.25 12.4142 0.25 12C0.25 11.5858 0.585786 11.25 1 11.25H4Z" fill="#000"/> <path d="M23 11.25C23.4142 11.25 23.75 11.5858 23.75 12C23.75 12.4142 23.4142 12.75 23 12.75H20C19.5858 12.75 19.25 12.4142 19.25 12C19.25 11.5858 19.5858 11.25 20 11.25H23Z" fill="#000"/> <path d="M3.69141 3.69141C3.98421 3.3986 4.45904 3.39877 4.75195 3.69141L6.87402 5.8125C7.16692 6.10539 7.16692 6.58113 6.87402 6.87402C6.58113 7.16692 6.10539 7.16692 5.8125 6.87402L3.69141 4.75195C3.39877 4.45904 3.3986 3.98421 3.69141 3.69141Z" fill="#000"/> <path d="M19.248 3.69141C19.5409 3.39868 20.0157 3.39868 20.3086 3.69141C20.6014 3.98426 20.6014 4.45905 20.3086 4.75195L18.1875 6.87402C17.8947 7.16666 17.4198 7.1665 17.127 6.87402C16.8341 6.58113 16.8341 6.10539 17.127 5.8125L19.248 3.69141Z" fill="#000"/> <path d="M12 0.25C12.4142 0.25 12.75 0.585786 12.75 1V4C12.75 4.41421 12.4142 4.75 12 4.75C11.5858 4.75 11.25 4.41421 11.25 4V1C11.25 0.585786 11.5858 0.25 12 0.25Z" fill="#000"/></g></svg>
