<svg preserveAspectRatio="none" overflow="visible" style="display: block;" width="24" height="24" viewBox="0 0 24 24" fill="none" xmlns="http://www.w3.org/2000/svg">
<g id="bell-ringing">
<g id="Vector">
<path fill-rule="evenodd" clip-rule="evenodd" d="M11.9993 4.25C15.1749 4.25 17.7493 6.82439 17.7493 10V11.9473C17.7493 12.4581 17.9234 12.9546 18.2425 13.3535L20.2854 15.9072C21.2016 17.0531 20.3855 18.75 18.9183 18.75H15.6741C15.5281 19.465 15.1745 20.1276 14.6507 20.6514C13.9474 21.3545 12.9938 21.75 11.9993 21.75C11.0049 21.7499 10.0511 21.3546 9.34795 20.6514C8.82427 20.1276 8.47153 19.4649 8.32549 18.75H5.08037C3.61341 18.7498 2.79724 17.053 3.71318 15.9072L5.75615 13.3535C6.07532 12.9546 6.24932 12.4582 6.24932 11.9473V10C6.24934 6.82449 8.82384 4.25018 11.9993 4.25ZM9.88115 18.75C9.99197 19.063 10.1693 19.3516 10.4085 19.5908C10.8304 20.0127 11.4027 20.2499 11.9993 20.25C12.596 20.25 13.1682 20.0127 13.5901 19.5908C13.8294 19.3515 14.0066 19.063 14.1175 18.75H9.88115ZM11.9993 5.75C9.65227 5.75018 7.74934 7.65292 7.74932 10V11.9473C7.74932 12.7986 7.45978 13.6252 6.92803 14.29L4.88506 16.8438C4.75434 17.0074 4.871 17.2498 5.08037 17.25H18.9183C19.1279 17.25 19.2445 17.0074 19.1136 16.8438L17.0706 14.29C16.5389 13.6252 16.2493 12.7986 16.2493 11.9473V10C16.2493 7.65281 14.3465 5.75 11.9993 5.75Z" fill="#4B5563"/>
<path d="M7.12432 1.55664C7.48298 1.34957 7.94157 1.47247 8.14873 1.83106C8.3557 2.18975 8.23298 2.6484 7.87432 2.85547C5.97972 3.94942 4.59692 5.7511 4.03057 7.86426C3.92334 8.26434 3.51171 8.50271 3.11162 8.39551C2.71183 8.28813 2.47426 7.87648 2.58135 7.47656C3.25058 4.97896 4.88509 2.8496 7.12432 1.55664Z" fill="#4B5563"/>
<path d="M15.8499 1.83106C16.057 1.47243 16.5156 1.34975 16.8743 1.55664C19.1136 2.84956 20.748 4.97893 21.4173 7.47656C21.5244 7.8766 21.287 8.28826 20.887 8.39551C20.487 8.50252 20.0752 8.26426 19.9681 7.86426C19.4017 5.75107 18.019 3.94939 16.1243 2.85547C15.7659 2.64834 15.6431 2.18965 15.8499 1.83106Z" fill="#4B5563"/>
</g>
</g>
</svg>
