<svg preserveAspectRatio="none" overflow="visible" style="display: block;" width="20" height="20" viewBox="0 0 20 20" fill="none" xmlns="http://www.w3.org/2000/svg">
<g id="Icon">
<path id="Vector" fill-rule="evenodd" clip-rule="evenodd" d="M5.74382 2.7157C6.16088 2.13186 6.94122 1.93757 7.58301 2.25834L8.15186 2.54318C8.6459 2.7902 8.95831 3.29535 8.95833 3.8477V5.86511L11.5153 5.22628L11.6341 5.20838C11.9097 5.19378 12.1696 5.36385 12.2599 5.63481L13.6776 9.88855C13.8105 10.2873 14.0346 10.6501 14.3319 10.9473L17.4536 14.0691C17.8833 14.4987 18.1249 15.0817 18.125 15.6893V15.8326C18.125 17.0982 17.099 18.1242 15.8333 18.1242H12.1126C11.1348 18.1242 10.1914 17.762 9.46452 17.1078L2.63346 10.9603C2.15068 10.5258 1.87502 9.90661 1.875 9.25704V8.86642C1.87507 8.38892 2.02472 7.92361 2.30225 7.53504L5.74382 2.7157ZM7.02393 3.37651C6.93232 3.33083 6.82063 3.35835 6.76107 3.44161L3.31868 8.26095C3.25725 8.34696 3.21049 8.44164 3.1779 8.5409H5.28564C6.33544 8.5409 7.3428 8.95825 8.08512 9.70056L15.2588 16.8742H15.8333C16.4086 16.8742 16.875 16.4079 16.875 15.8326V15.6893C16.8749 15.4132 16.7651 15.1481 16.5698 14.9528L13.4481 11.8311C13.0137 11.3967 12.6862 10.8669 12.4919 10.2841L11.2557 6.57882L8.4847 7.27218C8.29804 7.31878 8.10005 7.27665 7.9484 7.15825C7.79692 7.0398 7.70833 6.85821 7.70833 6.6659V3.8477C7.70831 3.76881 7.66333 3.69662 7.59277 3.66134L7.02393 3.37651ZM3.27311 9.7909C3.32603 9.87936 3.39186 9.96059 3.47005 10.031L10.3003 16.1792C10.7976 16.6268 11.4436 16.8742 12.1126 16.8742H13.4912L7.20133 10.5844C6.69343 10.0765 6.00392 9.7909 5.28564 9.7909H3.27311Z" fill="#4B5563"/>
</g>
</svg>
